{
    "asset" : {
        "copyright" : "Copyright (C) 2021 Logan Bier. All rights reserved.",
        "generator" : "Khronos glTF Blender I/O v1.5.17",
        "version" : "2.0"
    },
    "scene" : 0,
    "scenes" : [
        {
            "name" : "Scene",
            "nodes" : [
                0
            ]
        }
    ],
    "nodes" : [
        {
            "mesh" : 0,
            "name" : "skybox"
        }
    ],
    "materials" : [
        {
            "name" : "Material.002",
            "pbrMetallicRoughness" : {
                "baseColorFactor" : [
                    0.2961823046207428,
                    0.4637320637702942,
                    0.5382242798805237,
                    1
                ],
                "metallicFactor" : 0
            }
        }
    ],
    "meshes" : [
        {
            "name" : "Sphere.001",
            "primitives" : [
                {
                    "attributes" : {
                        "POSITION" : 0,
                        "NORMAL" : 1,
                        "TEXCOORD_0" : 2
                    },
                    "indices" : 3,
                    "material" : 0
                }
            ]
        }
    ],
    "accessors" : [
        {
            "bufferView" : 0,
            "componentType" : 5126,
            "count" : 65024,
            "max" : [
                1999.9945068359375,
                2000,
                1999.98974609375
            ],
            "min" : [
                -1999.99462890625,
                -2000,
                -1999.9986572265625
            ],
            "type" : "VEC3"
        },
        {
            "bufferView" : 1,
            "componentType" : 5126,
            "count" : 65024,
            "type" : "VEC3"
        },
        {
            "bufferView" : 2,
            "componentType" : 5126,
            "count" : 65024,
            "type" : "VEC2"
        },
        {
            "bufferView" : 3,
            "componentType" : 5123,
            "count" : 96768,
            "type" : "SCALAR"
        }
    ],
    "bufferViews" : [
        {
            "buffer" : 0,
            "byteLength" : 780288,
            "byteOffset" : 0
        },
        {
            "buffer" : 0,
            "byteLength" : 780288,
            "byteOffset" : 780288
        },
        {
            "buffer" : 0,
            "byteLength" : 520192,
            "byteOffset" : 1560576
        },
        {
            "buffer" : 0,
            "byteLength" : 193536,
            "byteOffset" : 2080768
        }
    ],
    "buffers" : [
        {
            "byteLength" : 2274304,
            "uri" : "data:application/octet-stream;base64,"
        }
    ]
}
